<?xml version="1.0" encoding="UTF-8"?>
<svg xmlns="http://www.w3.org/2000/svg" viewBox="0 0 320 320" role="img" aria-labelledby="title desc">
  <title id="title">AgriSense Mark v2</title>
  <desc id="desc">A modern green hex-badge with a leaf, field lines, IoT signal arcs, and AI circuit vein.</desc>
  <defs>
    <linearGradient id="leafGrad" x1="0" y1="0" x2="1" y2="1">
      <stop offset="0%" stop-color="#16a34a"/>
      <stop offset="100%" stop-color="#22c55e"/>
    </linearGradient>
    <linearGradient id="halo" x1="0" y1="0" x2="0" y2="1">
      <stop offset="0%" stop-color="#bbf7d0" stop-opacity="0.65"/>
      <stop offset="100%" stop-color="#86efac" stop-opacity="0.2"/>
    </linearGradient>
    <filter id="softShadow" x="-20%" y="-20%" width="140%" height="140%">
      <feDropShadow dx="0" dy="6" stdDeviation="10" flood-color="#052e2b" flood-opacity="0.25"/>
    </filter>
  </defs>

  <!-- Hexagon badge with gradient stroke -->
  <g filter="url(#softShadow)">
    <polygon points="160,16 289,88 289,232 160,304 31,232 31,88" fill="#0f3d2e"/>
    <polygon points="160,16 289,88 289,232 160,304 31,232 31,88" fill="none" stroke="url(#leafGrad)" stroke-width="10"/>
  </g>

  <!-- Inner circle halo -->
  <circle cx="160" cy="160" r="104" fill="url(#halo)"/>

  <!-- Field lines -->
  <g fill="none" stroke="#ffffff" stroke-opacity="0.92" stroke-width="6" stroke-linecap="round">
    <path d="M64 210c28-10 60-16 96-16s68 6 96 16" />
    <path d="M80 232c26-8 48-12 80-12s54 4 80 12" />
  </g>

  <!-- Leaf with AI circuit vein -->
  <g>
    <path d="M160 210c32-26 52-57 46-88-2-10-8-20-18-26-16 8-28 22-28 42v72z" fill="url(#leafGrad)"/>
    <path d="M160 210c-32-26-52-57-46-88 2-10 8-20 18-26 16 8 28 22 28 42v72z" fill="url(#leafGrad)" opacity="0.85"/>
    <!-- Circuit vein -->
    <g fill="#eafff5" stroke="#eafff5" stroke-width="3" stroke-linecap="round">
      <path d="M160 210v-48c0-10 8-18 18-18h18" fill="none"/>
      <circle cx="160" cy="162" r="4"/>
      <circle cx="178" cy="144" r="4"/>
      <circle cx="196" cy="144" r="4"/>
    </g>
  </g>

  <!-- IoT signal arcs (top right) -->
  <g fill="none" stroke="#ffffff" stroke-opacity="0.98" stroke-width="6" stroke-linecap="round">
    <path d="M210 66c12 9 22 20 27 33"/>
    <path d="M222 54c17 12 30 28 36 46"/>
  </g>
</svg>
