<?xml version="1.0" encoding="UTF-8"?>
<svg xmlns="http://www.w3.org/2000/svg" viewBox="0 0 880 220" role="img" aria-labelledby="title desc">
  <title id="title">AgriSense Lockup v2</title>
  <desc id="desc">A modern hex-mark with green gradients and a refined AgriSense wordmark.</desc>
  <defs>
    <linearGradient id="leafGrad" x1="0" y1="0" x2="1" y2="1">
      <stop offset="0%" stop-color="#16a34a"/>
      <stop offset="100%" stop-color="#22c55e"/>
    </linearGradient>
    <filter id="softShadow" x="-20%" y="-20%" width="140%" height="140%">
      <feDropShadow dx="0" dy="6" stdDeviation="10" flood-color="#052e2b" flood-opacity="0.25"/>
    </filter>
  </defs>

  <!-- Mark -->
  <g transform="translate(20,20)" filter="url(#softShadow)">
    <polygon points="90,0 180,52 180,148 90,200 0,148 0,52" fill="#0f3d2e"/>
    <polygon points="90,0 180,52 180,148 90,200 0,148 0,52" fill="none" stroke="url(#leafGrad)" stroke-width="8"/>
    <circle cx="90" cy="100" r="64" fill="#b9fbc9" fill-opacity="0.35"/>
    <g fill="none" stroke="#ffffff" stroke-opacity="0.92" stroke-width="4" stroke-linecap="round">
      <path d="M28 136c18-6 38-10 62-10s44 4 62 10" />
      <path d="M38 156c18-6 30-8 52-8s34 2 52 8" />
    </g>
    <g>
      <path d="M90 144c22-18 36-39 32-60-2-8-6-14-12-18-12 6-20 16-20 30v48z" fill="url(#leafGrad)"/>
      <path d="M90 144c-22-18-36-39-32-60 2-8 6-14 12-18 12 6 20 16 20 30v48z" fill="url(#leafGrad)" opacity="0.85"/>
    </g>
    <g fill="none" stroke="#ffffff" stroke-opacity="0.98" stroke-width="4" stroke-linecap="round">
      <path d="M136 40c10 8 18 18 22 30"/>
      <path d="M146 30c14 10 26 24 32 40"/>
    </g>
  </g>

  <!-- Wordmark -->
  <g transform="translate(240,50)" fill="#052e2b">
    <text x="0" y="64" font-family="'Segoe UI', Inter, system-ui, -apple-system, sans-serif" font-weight="800" font-size="72" letter-spacing="0.5">AgriSense</text>
    <text x="2" y="104" font-family="'Segoe UI', Inter, system-ui, -apple-system, sans-serif" font-weight="500" font-size="22" fill="#0f3d2e" opacity="0.85">IoT • AI/ML for Smarter Farming</text>
  </g>
</svg>
