<?xml version="1.0" encoding="UTF-8"?>
<svg xmlns="http://www.w3.org/2000/svg" viewBox="0 0 256 256" role="img" aria-labelledby="title desc">
  <title id="title">AgriSense Logo Mark</title>
  <desc id="desc">A green circular logo combining a leaf sprout, field lines, and wireless arcs to symbolize IoT and AI in agriculture.</desc>
  <defs>
    <linearGradient id="g" x1="0" y1="0" x2="1" y2="1">
      <stop offset="0%" stop-color="#16a34a"/>
      <stop offset="100%" stop-color="#22c55e"/>
    </linearGradient>
  </defs>
  <!-- Badge -->
  <circle cx="128" cy="128" r="120" fill="url(#g)" />
  <!-- Field lines -->
  <g fill="none" stroke="#ffffff" stroke-opacity="0.85" stroke-width="6" stroke-linecap="round">
    <path d="M36 176c24-8 48-12 92-12s68 4 92 12" />
    <path d="M48 196c26-7 46-10 80-10s54 3 80 10" />
    <path d="M60 214c24-6 40-8 68-8s44 2 68 8" />
  </g>
  <!-- Sprout -->
  <g fill="none" stroke="#083344" stroke-linecap="round" stroke-linejoin="round">
    <path d="M128 172v-36" stroke-width="7"/>
    <path d="M128 136c-1-20 12-34 36-36 6 0 12 1 18 4-3 20-20 32-42 32h-12" stroke="#052e2b" stroke-width="6"/>
    <path d="M128 144c1-20-12-34-36-36-6 0-12 1-18 4 3 20 20 32 42 32h12" stroke="#052e2b" stroke-width="6"/>
  </g>
  <!-- IoT signal arcs -->
  <g fill="none" stroke="#ffffff" stroke-opacity="0.95" stroke-width="6" stroke-linecap="round">
    <path d="M178 62c10 8 18 18 22 30"/>
    <path d="M190 50c14 10 26 24 32 40"/>
  </g>
  <!-- AI nodes -->
  <g fill="#ffffff" fill-opacity="0.95">
    <circle cx="100" cy="190" r="5"/>
    <circle cx="128" cy="182" r="5"/>
    <circle cx="156" cy="190" r="5"/>
  </g>
  <g stroke="#ffffff" stroke-opacity="0.9" stroke-width="3">
    <line x1="100" y1="190" x2="128" y2="182"/>
    <line x1="128" y1="182" x2="156" y2="190"/>
  </g>
</svg>
