<?xml version="1.0" encoding="UTF-8"?>
<svg xmlns="http://www.w3.org/2000/svg" viewBox="0 0 720 180" role="img" aria-labelledby="title desc">
  <title id="title">AgriSense Logo Lockup</title>
  <desc id="desc">A green circular mark with a sprout, field lines, and wireless arcs next to AgriSense wordmark.</desc>
  <defs>
    <linearGradient id="g" x1="0" y1="0" x2="1" y2="1">
      <stop offset="0%" stop-color="#16a34a"/>
      <stop offset="100%" stop-color="#22c55e"/>
    </linearGradient>
  </defs>
  <!-- Mark -->
  <g transform="translate(20,20)">
    <circle cx="70" cy="70" r="70" fill="url(#g)" />
    <g fill="none" stroke="#ffffff" stroke-opacity="0.85" stroke-width="4" stroke-linecap="round">
      <path d="M10 104c16-6 32-9 60-9s44 3 60 9" />
      <path d="M18 120c18-5 30-7 52-7s34 2 52 7" />
      <path d="M28 134c14-4 24-6 44-6s30 2 44 6" />
    </g>
    <g fill="none" stroke="#083344" stroke-linecap="round" stroke-linejoin="round">
      <path d="M70 120v-28" stroke-width="6"/>
      <path d="M70 92c-1-16 10-27 28-28 5 0 9 1 14 3-3 16-16 25-34 25h-8" stroke="#052e2b" stroke-width="5"/>
      <path d="M70 98c1-16-10-27-28-28-5 0-9 1-14 3 3 16 16 25 34 25h8" stroke="#052e2b" stroke-width="5"/>
    </g>
    <g fill="none" stroke="#ffffff" stroke-opacity="0.95" stroke-width="4" stroke-linecap="round">
      <path d="M108 36c10 8 18 18 22 30"/>
      <path d="M118 28c14 10 26 24 32 40"/>
    </g>
  </g>
  <!-- Wordmark -->
  <g transform="translate(180,35)" fill="#052e2b">
    <path d="M0 90V18h20v54c4-6 12-12 26-12 22 0 36 16 36 38 0 24-16 40-38 40-14 0-22-6-26-12v10H0zm44-56c-12 0-22 10-22 24s10 24 22 24 22-10 22-24-10-24-22-24z"/>
    <path d="M102 138V18h20v46c6-6 14-10 24-10 22 0 38 17 38 40s-16 40-38 40c-10 0-18-4-24-10v14h-20zm40-84c-12 0-22 10-22 24s10 24 22 24 22-10 22-24-10-24-22-24z"/>
    <path d="M210 126l10-14c8 6 16 10 26 10 8 0 12-3 12-7 0-4-4-6-16-9-18-4-32-8-32-24 0-14 12-24 32-24 14 0 26 4 34 10l-10 14c-6-4-14-8-22-8-8 0-12 3-12 7 0 5 6 6 18 9 18 5 30 10 30 24s-12 24-34 24c-14 0-28-4-36-12z"/>
    <path d="M306 18h20v120h-20V18z"/>
  </g>
</svg>
